<svg xmlns="http://www.w3.org/2000/svg" x="0px" y="0px"
width="32" height="32"
viewBox="0 0 172 172"
style=" fill:#000000;"><g transform="translate(4.73,4.73) scale(0.945,0.945)"><g fill="none" fill-rule="nonzero" stroke="none" stroke-width="none" stroke-linecap="butt" stroke-linejoin="none" stroke-miterlimit="10" stroke-dasharray="" stroke-dashoffset="0" font-family="none" font-weight="none" font-size="none" text-anchor="none" style="mix-blend-mode: normal"><g fill="#e74c3c" stroke="#e74c3c" stroke-width="10" stroke-linejoin="round"><path d="M162.56015,13.49349l-72.50651,72.50651l72.50651,72.50651c1.11981,1.11978 1.11981,2.93383 0,4.05364c-0.55989,0.55989 -1.29335,0.83985 -2.02682,0.83985c-0.73347,0 -1.46693,-0.27996 -2.02682,-0.83985l-72.50651,-72.50651l-72.50651,72.50651c-0.55989,0.55989 -1.29335,0.83985 -2.02682,0.83985c-0.73347,0 -1.46693,-0.27996 -2.02682,-0.83985c-1.11981,-1.11978 -1.11981,-2.93383 0,-4.05364l72.50651,-72.50651l-72.50651,-72.50651c-1.11981,-1.11978 -1.11978,-2.93383 0,-4.05364c1.11978,-1.11981 2.93383,-1.11981 4.05364,0l72.50651,72.50651l72.50651,-72.50651c1.11978,-1.11981 2.93383,-1.11981 4.05364,0c1.11981,1.11978 1.11981,2.93386 0,4.05364z"></path></g><path d="M0,172v-172h172v172z" fill="none" stroke="none" stroke-width="1" stroke-linejoin="miter"></path><g fill="#e74c3c" stroke="none" stroke-width="1" stroke-linejoin="miter"><path d="M162.56015,9.43985c-1.11981,-1.11981 -2.93386,-1.11981 -4.05364,0l-72.50651,72.50651l-72.50651,-72.50651c-1.11981,-1.11981 -2.93386,-1.11981 -4.05364,0c-1.11978,1.11981 -1.11981,2.93386 0,4.05364l72.50651,72.50651l-72.50651,72.50651c-1.11981,1.11981 -1.11981,2.93386 0,4.05364c0.55989,0.55989 1.29335,0.83985 2.02682,0.83985c0.73347,0 1.46693,-0.27996 2.02682,-0.83985l72.50651,-72.50651l72.50651,72.50651c0.55989,0.55989 1.29335,0.83985 2.02682,0.83985c0.73347,0 1.46693,-0.27996 2.02682,-0.83985c1.11981,-1.11981 1.11981,-2.93386 0,-4.05364l-72.50651,-72.50651l72.50651,-72.50651c1.11981,-1.11978 1.11981,-2.93386 0,-4.05364z"></path></g><path d="" fill="none" stroke="none" stroke-width="1" stroke-linejoin="miter"></path></g></g></svg>